<?xml version="1.0" encoding="UTF-8" standalone="no"?>
<!DOCTYPE svg PUBLIC "-//W3C//DTD SVG 1.1//EN" "http://www.w3.org/Graphics/SVG/1.1/DTD/svg11.dtd">
<svg width="100%" height="100%" viewBox="0 0 640 153" version="1.1" xmlns="http://www.w3.org/2000/svg" xmlns:xlink="http://www.w3.org/1999/xlink" xml:space="preserve" xmlns:serif="http://www.serif.com/" style="fill-rule:evenodd;clip-rule:evenodd;stroke-linejoin:round;stroke-miterlimit:2;">
    <g transform="matrix(1,0,0,1,-212.234,-445.643)">
        <g transform="matrix(1,0,0,1,-121.96,129.046)">
            <g transform="matrix(192,0,0,192,331.831,465.963)">
                <path d="M0.583,-0.208C0.583,-0.164 0.571,-0.125 0.548,-0.091C0.524,-0.056 0.491,-0.03 0.447,-0.011C0.404,0.008 0.352,0.017 0.293,0.017C0.176,0.017 0.082,-0.017 0.012,-0.085L0.097,-0.179C0.152,-0.132 0.216,-0.108 0.289,-0.108C0.325,-0.108 0.354,-0.115 0.375,-0.131C0.397,-0.146 0.408,-0.168 0.408,-0.195C0.408,-0.212 0.404,-0.227 0.396,-0.239C0.388,-0.251 0.375,-0.261 0.357,-0.271C0.338,-0.28 0.312,-0.29 0.278,-0.301C0.223,-0.318 0.178,-0.336 0.145,-0.357C0.111,-0.377 0.087,-0.401 0.072,-0.428C0.056,-0.454 0.049,-0.486 0.049,-0.523C0.049,-0.565 0.061,-0.601 0.084,-0.633C0.108,-0.664 0.14,-0.688 0.181,-0.704C0.222,-0.721 0.267,-0.729 0.316,-0.729C0.422,-0.729 0.507,-0.698 0.571,-0.637L0.492,-0.546C0.468,-0.565 0.442,-0.58 0.415,-0.59C0.387,-0.6 0.359,-0.605 0.33,-0.605C0.297,-0.605 0.271,-0.599 0.252,-0.587C0.233,-0.575 0.223,-0.558 0.223,-0.535C0.223,-0.52 0.227,-0.507 0.236,-0.497C0.244,-0.487 0.259,-0.478 0.279,-0.469C0.299,-0.46 0.329,-0.45 0.369,-0.437C0.417,-0.422 0.456,-0.405 0.487,-0.386C0.517,-0.367 0.541,-0.344 0.558,-0.315C0.574,-0.286 0.583,-0.25 0.583,-0.208Z" style="fill:rgb(33,33,33);fill-rule:nonzero;"/>
            </g>
            <g transform="matrix(192,0,0,192,438.465,465.963)">
                <path d="M0.212,-0.225C0.217,-0.182 0.231,-0.151 0.254,-0.131C0.277,-0.111 0.307,-0.101 0.343,-0.101C0.389,-0.101 0.436,-0.116 0.483,-0.146L0.548,-0.057C0.521,-0.034 0.489,-0.016 0.452,-0.003C0.415,0.011 0.375,0.017 0.33,0.017C0.269,0.017 0.218,0.005 0.175,-0.019C0.133,-0.043 0.101,-0.077 0.079,-0.121C0.058,-0.164 0.047,-0.215 0.047,-0.272C0.047,-0.326 0.058,-0.375 0.078,-0.419C0.099,-0.464 0.13,-0.498 0.17,-0.524C0.21,-0.55 0.257,-0.563 0.313,-0.563C0.364,-0.563 0.409,-0.551 0.448,-0.529C0.486,-0.507 0.516,-0.475 0.537,-0.433C0.558,-0.391 0.568,-0.341 0.568,-0.283C0.568,-0.261 0.567,-0.242 0.565,-0.225L0.212,-0.225ZM0.313,-0.454C0.283,-0.454 0.259,-0.443 0.242,-0.422C0.224,-0.4 0.214,-0.367 0.21,-0.323L0.41,-0.323C0.409,-0.41 0.377,-0.454 0.313,-0.454Z" style="fill:url(#_Linear1);fill-rule:nonzero;"/>
            </g>
            <g transform="matrix(192,0,0,192,545.099,465.963)">
                <path d="M0.488,-0.561C0.52,-0.561 0.55,-0.556 0.577,-0.545L0.547,-0.317L0.446,-0.317L0.446,-0.417C0.416,-0.412 0.389,-0.396 0.366,-0.368C0.342,-0.341 0.324,-0.306 0.311,-0.265L0.311,-0.109L0.418,-0.109L0.418,-0L0.077,-0L0.077,-0.109L0.149,-0.109L0.149,-0.437L0.077,-0.437L0.077,-0.545L0.272,-0.545L0.302,-0.422C0.322,-0.469 0.346,-0.504 0.377,-0.527C0.407,-0.55 0.444,-0.561 0.488,-0.561Z" style="fill:url(#_Linear2);fill-rule:nonzero;"/>
            </g>
            <g transform="matrix(192,0,0,192,651.732,465.963)">
                <path d="M0.234,-0.489C0.251,-0.512 0.272,-0.53 0.296,-0.543C0.32,-0.556 0.346,-0.563 0.373,-0.563C0.441,-0.563 0.492,-0.537 0.525,-0.487C0.558,-0.436 0.574,-0.365 0.574,-0.274C0.574,-0.217 0.566,-0.167 0.549,-0.123C0.532,-0.079 0.507,-0.045 0.475,-0.02C0.442,0.005 0.403,0.017 0.356,0.017C0.329,0.017 0.304,0.012 0.28,0C0.257,-0.011 0.237,-0.028 0.222,-0.049L0.215,-0L0.072,-0L0.072,-0.761L0.234,-0.778L0.234,-0.489ZM0.314,-0.101C0.376,-0.101 0.407,-0.158 0.407,-0.272C0.407,-0.316 0.404,-0.35 0.397,-0.375C0.39,-0.4 0.38,-0.418 0.368,-0.428C0.355,-0.438 0.34,-0.443 0.322,-0.443C0.289,-0.443 0.259,-0.422 0.234,-0.38L0.234,-0.15C0.244,-0.134 0.256,-0.121 0.269,-0.113C0.282,-0.105 0.297,-0.101 0.314,-0.101Z" style="fill:url(#_Linear3);fill-rule:nonzero;"/>
            </g>
            <g transform="matrix(192,0,0,192,758.366,465.963)">
                <path d="M0.212,-0.225C0.217,-0.182 0.231,-0.151 0.254,-0.131C0.277,-0.111 0.307,-0.101 0.343,-0.101C0.389,-0.101 0.436,-0.116 0.483,-0.146L0.548,-0.057C0.521,-0.034 0.489,-0.016 0.452,-0.003C0.415,0.011 0.375,0.017 0.33,0.017C0.269,0.017 0.218,0.005 0.175,-0.019C0.133,-0.043 0.101,-0.077 0.079,-0.121C0.058,-0.164 0.047,-0.215 0.047,-0.272C0.047,-0.326 0.058,-0.375 0.078,-0.419C0.099,-0.464 0.13,-0.498 0.17,-0.524C0.21,-0.55 0.257,-0.563 0.313,-0.563C0.364,-0.563 0.409,-0.551 0.448,-0.529C0.486,-0.507 0.516,-0.475 0.537,-0.433C0.558,-0.391 0.568,-0.341 0.568,-0.283C0.568,-0.261 0.567,-0.242 0.565,-0.225L0.212,-0.225ZM0.313,-0.454C0.283,-0.454 0.259,-0.443 0.242,-0.422C0.224,-0.4 0.214,-0.367 0.21,-0.323L0.41,-0.323C0.409,-0.41 0.377,-0.454 0.313,-0.454Z" style="fill:rgb(33,33,33);fill-rule:nonzero;"/>
            </g>
            <g transform="matrix(192,0,0,192,865,465.963)">
                <path d="M0.53,-0.157C0.53,-0.137 0.533,-0.122 0.538,-0.113C0.544,-0.103 0.553,-0.096 0.566,-0.091L0.533,0.015C0.5,0.012 0.472,0.005 0.451,-0.006C0.429,-0.018 0.412,-0.035 0.399,-0.056C0.379,-0.032 0.353,-0.014 0.321,-0.001C0.289,0.011 0.256,0.017 0.22,0.017C0.183,0.017 0.151,0.01 0.123,-0.004C0.095,-0.019 0.074,-0.039 0.058,-0.065C0.043,-0.091 0.036,-0.12 0.036,-0.154C0.036,-0.193 0.046,-0.226 0.067,-0.254C0.088,-0.282 0.118,-0.303 0.158,-0.317C0.198,-0.332 0.245,-0.339 0.301,-0.339L0.374,-0.339L0.374,-0.359C0.374,-0.415 0.338,-0.443 0.267,-0.443C0.249,-0.443 0.226,-0.441 0.198,-0.435C0.171,-0.43 0.144,-0.423 0.117,-0.414L0.08,-0.522C0.114,-0.535 0.15,-0.545 0.188,-0.552C0.226,-0.559 0.261,-0.563 0.292,-0.563C0.372,-0.563 0.432,-0.546 0.471,-0.514C0.511,-0.481 0.53,-0.434 0.53,-0.37L0.53,-0.157ZM0.276,-0.098C0.294,-0.098 0.313,-0.104 0.332,-0.115C0.351,-0.125 0.365,-0.14 0.374,-0.158L0.374,-0.247L0.334,-0.247C0.29,-0.247 0.257,-0.24 0.235,-0.226C0.214,-0.212 0.203,-0.192 0.203,-0.165C0.203,-0.144 0.209,-0.128 0.222,-0.116C0.235,-0.104 0.253,-0.098 0.276,-0.098Z" style="fill:rgb(33,33,33);fill-rule:nonzero;"/>
            </g>
        </g>
    </g>
    <defs>
        <linearGradient id="_Linear1" x1="0" y1="0" x2="1" y2="0" gradientUnits="userSpaceOnUse" gradientTransform="matrix(-0.00251806,-0.544073,0.544073,-0.00251806,0.331076,-0.00393231)"><stop offset="0" style="stop-color:rgb(124,19,26);stop-opacity:1"/><stop offset="1" style="stop-color:rgb(33,33,33);stop-opacity:1"/></linearGradient>
        <linearGradient id="_Linear2" x1="0" y1="0" x2="1" y2="0" gradientUnits="userSpaceOnUse" gradientTransform="matrix(0.00258705,-0.535139,0.535139,0.00258705,0.232495,-0.0154533)"><stop offset="0" style="stop-color:rgb(126,19,26);stop-opacity:1"/><stop offset="1" style="stop-color:rgb(33,33,33);stop-opacity:1"/></linearGradient>
        <linearGradient id="_Linear3" x1="0" y1="0" x2="1" y2="0" gradientUnits="userSpaceOnUse" gradientTransform="matrix(0.00421702,0.643286,-0.643286,0.00421702,0.209886,-0.664778)"><stop offset="0" style="stop-color:rgb(33,33,33);stop-opacity:1"/><stop offset="1" style="stop-color:rgb(126,19,26);stop-opacity:1"/></linearGradient>
    </defs>
</svg>
